/* XPM */
static const char *gxust80[] = {
/* columns rows colors chars-per-pixel */
"80 80 228 2 ",
"   c #00009F",
".  c #000AA4",
"X  c #0012A6",
"o  c #0F1FA7",
"O  c #011CA8",
"+  c #0121A6",
"@  c #0422AB",
"#  c #0827A8",
"$  c #0A27AD",
"%  c #132CAA",
"&  c #142FAB",
"*  c #112EAC",
"=  c #1F38A1",
"-  c #1331AC",
";  c #1632AC",
":  c #1935AD",
">  c #1D35AE",
",  c #1D38AF",
"<  c #1F39AE",
"1  c #1835B0",
"2  c #253DA6",
"3  c #203BB0",
"4  c #233EB1",
"5  c #273EB1",
"6  c #2840A4",
"7  c #364EAB",
"8  c #384FA9",
"9  c #384FAA",
"0  c #3E54AD",
"q  c #3F56AF",
"w  c #2740B2",
"e  c #2844B3",
"r  c #2C45B4",
"t  c #2F46B4",
"y  c #304AB5",
"u  c #344DB6",
"i  c #374EB7",
"p  c #394EB7",
"a  c #3A53B9",
"s  c #3E56BB",
"d  c #4156B2",
"f  c #455AB0",
"g  c #475FB3",
"h  c #465EB4",
"j  c #485FB3",
"k  c #4A5EB4",
"l  c #485DB6",
"z  c #4156B9",
"x  c #4459BB",
"c  c #445BBC",
"v  c #475EBC",
"b  c #455DBE",
"n  c #4960BD",
"m  c #4A61BF",
"M  c #4D61BE",
"N  c #4E64BE",
"B  c #5064B5",
"V  c #5067B8",
"C  c #546ABD",
"Z  c #5B6FBD",
"A  c #6072BE",
"S  c #6375BD",
"D  c #6576BD",
"F  c #6577BE",
"G  c #4F65C1",
"H  c #5465C0",
"J  c #566AC2",
"K  c #586DC3",
"L  c #5B6FC3",
"P  c #5E71C5",
"I  c #6174C5",
"U  c #6376C6",
"Y  c #6578C2",
"T  c #6678C7",
"R  c #6A7CC0",
"E  c #6B7CC0",
"W  c #6B7CC3",
"Q  c #697CC8",
"!  c #6D7ECA",
"~  c #6F80C2",
"^  c #7080C4",
"/  c #7384C5",
"(  c #7585C4",
")  c #7786C6",
"_  c #7A89C7",
"`  c #7181CB",
"'  c #7485C9",
"]  c #7484CB",
"[  c #7587CC",
"{  c #7D8CC8",
"}  c #7F8EC9",
"|  c #7C8CCE",
" . c #7E8DCF",
".. c #808EC8",
"X. c #8190C9",
"o. c #8190CB",
"O. c #8391CB",
"+. c #8492CB",
"@. c #8593CB",
"#. c #8693CB",
"$. c #8691CC",
"%. c #8492CC",
"&. c #8593CD",
"*. c #8795CD",
"=. c #8796CC",
"-. c #8896CB",
";. c #8997CD",
":. c #8997CE",
">. c #8A98CC",
",. c #8B98CD",
"<. c #8B98CE",
"1. c #8A98CF",
"2. c #8C9ACD",
"3. c #909BCE",
"4. c #919ECF",
"5. c #808FD1",
"6. c #8393D1",
"7. c #8797D5",
"8. c #8A98D3",
"9. c #8D9BD0",
"0. c #8E9CD0",
"q. c #8F9DD1",
"w. c #8B98D5",
"e. c #8E9AD6",
"r. c #919ED1",
"t. c #909DD6",
"y. c #93A0D0",
"u. c #93A0D2",
"i. c #95A2D2",
"p. c #97A3D4",
"a. c #94A2D7",
"s. c #98A5D2",
"d. c #98A4D4",
"f. c #9AA6D4",
"g. c #9CA7D6",
"h. c #9CA8D4",
"j. c #9EAAD5",
"k. c #9EA9D6",
"l. c #99A4D8",
"z. c #9CA8DA",
"x. c #9FABDB",
"c. c #A1ABD6",
"v. c #A1ABD7",
"b. c #A3ADD7",
"n. c #A0ACD8",
"m. c #A2ACD8",
"M. c #A4AFD8",
"N. c #A3AEDD",
"B. c #A6B1D8",
"V. c #A6B0DD",
"C. c #A9B2DA",
"Z. c #ABB5D9",
"A. c #A9B3DD",
"S. c #ABB6DC",
"D. c #AEB7DD",
"F. c #AEB8DA",
"G. c #AFB9DD",
"H. c #B1BADD",
"J. c #B3BCDE",
"K. c #B4BDDD",
"L. c #B4BCDF",
"P. c #ABB4E0",
"I. c #AEB8E0",
"U. c #B2BCE2",
"Y. c #B5BEE0",
"T. c #B7BFE1",
"R. c #B8C1DE",
"E. c #B7C0E0",
"W. c #B6C0E3",
"Q. c #BBC3E1",
"!. c #B8C0E2",
"~. c #BAC2E3",
"^. c #BCC3E2",
"/. c #BFC6E1",
"(. c #BCC4E3",
"). c #B8C1E4",
"_. c #C0C7E3",
"`. c #C2C9E2",
"'. c #C1C8E5",
"]. c #C4CAE5",
"[. c #C5CDE5",
"{. c #C8CFE5",
"}. c #C3CBE9",
"|. c #C7CEE8",
" X c #C9CFE8",
".X c #CBD1E7",
"XX c #C9D0E8",
"oX c #CCD2E9",
"OX c #CED3E8",
"+X c #CED3EA",
"@X c #D0D6EA",
"#X c #D2D7EB",
"$X c #D5DAEC",
"%X c #D6DBED",
"&X c #D4D9EE",
"*X c #D9DEEE",
"=X c #DBDFEE",
"-X c #DDE1EF",
";X c #DBE0F0",
":X c #DFE3F1",
">X c #E0E4F1",
",X c #E2E5F1",
"<X c #E3E7F3",
"1X c #E5E8F2",
"2X c #E6E9F4",
"3X c #E7EAF5",
"4X c #E9ECF4",
"5X c #EBEDF5",
"6X c #E9ECF6",
"7X c #ECEEF6",
"8X c #EEF0F6",
"9X c #F0F2F8",
"0X c #F2F4F8",
"qX c #F3F5F9",
"wX c #F6F7F9",
"eX c #F4F5FA",
"rX c #F5F7FB",
"tX c #F8F9FA",
"yX c #F8F9FC",
"uX c #FAFAFC",
"iX c #FBFBFD",
"pX c #FBFCFC",
"aX c #FDFDFC",
"sX c #FCFDFD",
"dX c #FFFFFC",
"fX c #FEFEFE",
"gX c white",
"hX c None",
/* pixels */
"hXhXhXhXhXhXhXhXhXhXhXhXhXhXhXhXhXhXhXhXhXhXhXhXhXhXhXhXhXhXhXhXhXhXhX= d V G b b N V d 2 hXhXhXhXhXhXhXhXhXhXhXhXhXhXhXhXhXhXhXhXhXhXhXhXhXhXhXhXhXhXhXhXhXhXhX",
"hXhXhXhXhXhXhXhXhXhXhXhXhXhXhXhXhXhXhXhXhXhXhXhXhXhXhXhXhXhXhXS &.c.^.XX*X*X5X5X5X2X-X@XXX^.c.&.S hXhXhXhXhXhXhXhXhXhXhXhXhXhXhXhXhXhXhXhXhXhXhXhXhXhXhXhXhXhXhX",
"hXhXhXhXhXhXhXhXhXhXhXhXhXhXhXhXhXhXhXhXhXhXhXhXhXhXhXB ,.K.-X0XgXgXR.y.r.^ +XgXgXuX/ { Q.tXgXgX0X*XE.X.B hXhXhXhXhXhXhXhXhXhXhXhXhXhXhXhXhXhXhXhXhXhXhXhXhXhXhX",
"hXhXhXhXhXhXhXhXhXhXhXhXhXhXhXhXhXhXhXhXhXhXhXhXhX) G.1X*XE.k.gXgXuX) _ ^ &.[.gXgXK.i.Q 9.K.gXgXgXF.M.uX:XZ.) hXhXhXhXhXhXhXhXhXhXhXhXhXhXhXhXhXhXhXhXhXhXhXhXhX",
"hXhXhXhXhXhXhXhXhXhXhXhXhXhXhXhXhXhXhXhXhXhX9 =.+XgXwX/ ^ E { 9XgXgX&Xc.k @.{.gXgXtXF.K i.-XgXgX9Xk f.{.{ 8XgX+X,.9 hXhXhXhXhXhXhXhXhXhXhXhXhXhXhXhXhXhXhXhXhXhX",
"hXhXhXhXhXhXhXhXhXhXhXhXhXhXhXhXhXhXhXhXhX0.&XgXgXgX&X@.c.A B..XgXgXQ.C.Z .X<XgXgX+X|.Y ].2XgXgX(.4 c.R.9.gXgXgXgX{.=.hXhXhXhXhXhXhXhXhXhXhXhXhXhXhXhXhXhXhXhXhX",
"hXhXhXhXhXhXhXhXhXhXhXhXhXhXhXhXhXhXhXE  X@XgX<X8XgXgX.X9.N C.-XgXgXgX*XG.gXgXgXgX+XH.M.c.Q.gXgXb.X.Z.^ =.gXgXgX{ f.gX[.~ hXhXhXhXhXhXhXhXhXhXhXhXhXhXhXhXhXhXhX",
"hXhXhXhXhXhXhXhXhXhXhXhXhXhXhXhXhX9 b.uXgX;.` r.8XgXgX+X X) gXgXuX;X'.G.Z.f.f.a.a.b.C.H.E.].-XuX1X1X2XE M.gXgX@XC M.Y M.uXB.0 hXhXhXhXhXhXhXhXhXhXhXhXhXhXhXhXhX",
"hXhXhXhXhXhXhXhXhXhXhXhXhXhXhXhXE &XgXgXJ.E < D.5XuXgXgXpX`.E.i.3.k.K. X;X2X9XwXwX9X2X;X XK.k.3.f.(.7X-XgXgXgX_ { =.K 4.7XgX&XE hXhXhXhXhXhXhXhXhXhXhXhXhXhXhXhX",
"hXhXhXhXhXhXhXhXhXhXhXhXhXhXhX0.5XgXgXgX+X5X,.D.) &XgX_.y.f.Y.<XgXgXgXgXgXgXgXgXgXgXgXgXgXgXgXgX<XY.4.s.'.gX@X{ &X) E [.gXgXgX9X@.hXhXhXhXhXhXhXhXhXhXhXhXhXhXhX",
"hXhXhXhXhXhXhXhXhXhXhXhXhXhXS.<X;.*XgXgXgX{.,.gXgXJ.@.M.<XgXgXgXgXgXgXgXgXgXgXgXgXgXgXgXgXgXgXgXgXgXgX<XM.@.S.1XB.M K.gXgXgXE.;.gXM.hXhXhXhXhXhXhXhXhXhXhXhXhXhX",
"hXhXhXhXhXhXhXhXhXhXhXhXhXE.&XZ I ^ +XgXgX{.<X(.X.D.wXgXgXgXgXgXgXgXgXgXgXgXgXgXgXgXgXgXgXgXgXgXgXgXgXgXgXwXG.=.+X1X{.gXgXwXF 2.k.2XY.hXhXhXhXhXhXhXhXhXhXhXhXhX",
"hXhXhXhXhXhXhXhXhXhXhXhXQ.-X_ Z / { A @XgX7X4.k.0XgXgXgXgXgXgXgXgXgXgXgXgXgXgXgXgXgXgXgXgXgXgXgXgXgXgXgXgXgXgXwXk.0.5XgXwX4.2.,.z K.gXY.hXhXhXhXhXhXhXhXhXhXhXhX",
"hXhXhXhXhXhXhXhXhXhXhXF.gX0XR.C @X@X_ {.(.X.&XgXgXgXgXgXgXgXgXgXgXgXgXgXgXgXgXgXgXgXgXgXgXgXgXgXgXgXgXgXgXgXgXgXgX&XX.(.:X{ &.V.) C.gXgXG.hXhXhXhXhXhXhXhXhXhXhX",
"hXhXhXhXhXhXhXhXhXhXc.gXgXgXuX) &.y.8XM.a.uXgXgXgXgXgXgXgXgXgXgXgXgXgXgXgXgXgXgXgXgXgXgXgXgXgXgXgXgXgXgXgXgXgXgXgXgXgXf.k.5XB.a.Z 2XgXgXgXn.hXhXhXhXhXhXhXhXhXhX",
"hXhXhXhXhXhXhXhXhX;.gXR.wXgXgXuX{ 0X0.H.gXgXgXgXgXgXgXgXgXgXgXgXgXgXgXgXgXgXgXgXgXgXgXgXgXgXgXgXgXgXgXgXgXgXgXgXgXgXgXgXK.4.@X XpXgXgX0XgXgX0.hXhXhXhXhXhXhXhXhX",
"hXhXhXhXhXhXhXhXE 1XX.s.gXgXgXgXgX@.[.gXgXgXgXgXgXgXgXgXgXgXgXgXgXgXgXgXgXgXgXgXgXgXgXgXgXgXgXgXgXgXgXgXgXgXgXgXgXgXgXgXgX|.-.gXgXgX0XB.E V.*X~ hXhXhXhXhXhXhXhX",
"hXhXhXhXhXhXhX9 -X&XE gXgXgXgXtXX.+XgXgXgXgXgXgXgXgXgXgXgXgXgXgXgXgXgXgXgXgXgXgXgXgXgXgXgXgXgXgXgXgXgXgXgXgXgXgXgXgXgXgXgXgX+XX.uX9XK.E X.A [.<X0 hXhXhXhXhXhXhX",
"hXhXhXhXhXhXhXB.gX/ (.gXgXgXgX-.|.gXgXgXgXgXgXgXgXgXgXgXgXgXgXgXgXgXgXgXgXgXgXgXgXgXgXgXgXgXgXgXgXgXgXgXgXgXgXgXgXgXgXgXgXgXgX X9.8Xk X.9.F Y.gXC.hXhXhXhXhXhXhX",
"hXhXhXhXhXhXE uXgX2X/ (.gXgXf.K.gXgXgXgXgXgXgXgXgXgXgXgXgXgXgXgXgXgXgXgXgXgXgXgXgXgXgXgXgXgXgXgXgXgXgXgXgXgXgXgXgXgXgXgXgXgXgXgXE.M.2XX.E k.+XgXuX~ hXhXhXhXhXhX",
"hXhXhXhXhXhX.XgXgXgXtX^ 5X].f.gXgXgXgXgXgXgXgXgXgXgXgXgXA.w.7.7.7.7.7.7.7.7.7.7.7.7.7.7.7.7.7.7.7.7.7.w.U.gXgXgXgXgXgXgXgXgXgXgXgXs.@XS.C.wXgXgXgX+XhXhXhXhXhXhX",
"hXhXhXhXhX=.gXgXgXgXgX9X*X@.uXgXgXgXgXgXgXgXgXgXgXgXgXI.  y b b b b b b b b b b b b b b b b b b b b b 4 . +XgXgXgXgXgXgXgXgXgXgXgXgXX.5XgXgXgXgXgXgX;.hXhXhXhXhX",
"hXhXhXhX9 *XgXgXgXgXgXgX9.*XgXgXgXgXgXgXgXgXgXgXgXgXwX3 o a.gXgXgXgXgXgXgXgXgXgXgXgXgXgXgXgXgXgXgXgXgX] o i gXgXgXgXgXgXgXgXgXgXgXgX*X,.gXgXgXgXgXgX*Xf hXhXhXhX",
"hXhXhXhX,.gXgXgXgXgXgX'.c.gXgXgXgXgXgXgXgXgXgXgXgXgXT m z.i gXgXgXgXgXgXgX1X5.m J t.wXgXgXgXgXgXgXgXpX3 E.e 8.gXgXgXgXgXgXgXgXgXgXgXgXb.'.gXgXgXgXgXgX0.hXhXhXhX",
"hXhXhXhX@XgXgXgXgXgXuX4.uXgXgXgXgXgXgXgXgXgXgXgXgX+X+ <X5X- 2XgXgXgXgXgX8X4 X b 1   a pXgXgXgXgXgXgX+X- gX'.+ 2XgXgXgXgXgXgXgXgXgXgXgXwX,.uXgXgXgXgXgX@XhXhXhXhX",
"hXhXhX) gXgXgXgXgXgXI.^ tXgXgXgXgXgXgXgXgXgXgXgXgXr ] gXgXw V.gXgXgXgXgX+XX * .X@X] 6.wXgXgXgXgXgXgX5.s gXgXN m gXgXgXgXgXgXgXgXgXgXgXgXM.H.gXgXgXgXgXgX) hXhXhX",
"hXhXhXH.gXgXgXgXgXgX^ 5 ; M N.5XgXgXgXgXgXgXgXgXa.- tXgXgXT K gXgXgXgXgXwXb . . 1 ! 8XgXgXgXgXgXgXgXa 8.gXgX5X+ ).gXgXgXgXgXgXgXgX1Xl.x & C gXgXgXgXgXgXK.hXhXhX",
"hXhXk 2XgXgXgXgXgX[.C.gX@X` 5 & x l.<XgXgXgXgX7X# U.gXgXgXU.3 gXgXgXgXgXgXgXA.m $ . e tXgXgXgXgXgX8X- &XgXgXgXt.; pXgXgXgXgX;Xe.a & r  .<XR.{.gXgXgXgXgX5XB hXhX",
"hXhXX.gXgXgXgXgXgX[ % J ).gXgX:X .r & p w.;XgXK G gXgXgXgX9X- @XgXgXgXgX<XH [ gX*X@ @ 7XgXgXgXgXgXG.3 gXgXgXgXgXy  .gX&X5.y % i w.5XgXgXP.p Q gXgXgXgXgXgX@.hXhX",
"hXhXD.gXgXgXgXgX5Xk.+XQ 3 ; m A.gXgX5Xe.i & e X E.gXgXgXgXgXa 6.gXgXgXgX0X:   K K . G gXgXgXgXgXgXI K gXgXgXgXgXl.X e & z z.0XgX0Xz.z & w  .,.7XgXgXgXgXgXH.hXhX",
"hXhX&XgXgXgXgXgXQ.z }.gXgX&X[ w & z z.0XgX0Xz.H : w ` |.gXgXt.a gXgXgXgXgX:XJ 1 < ! 9XgXgXgXgXgXgX4 ).gXpX(.T 3 < K A.pXgX5Xt.i & r 6.<XgXgX .U.gXgXgXgXgX&XhXhX",
"hXS 0XgXgXgXgXgXf.H < : J E.gXgX<X6.y % i e.5XgXpXA.m ; 3 ! a.: gXgXgXgXgXgXgXgXgXgXgXgXgXgXgXgX2X- N.P > : J E.gXgX<X5.r & p t.7XgXgXA.M ; > 9.gXgXgXgXgXwXS hX",
"hX&.gXgXgXgXgXuXs.gXgX'.T 4 ; M A.pXgX7Xt.a & r 5.:XgXgXE.J < O K I.wXgXgXgXgXgXgXgXgXgXgXgX7XV.m O 4 I '.gXgX&X] 5 & x z.wXgX0Xz.z & w ` +XgXc.tXgXgXgXgXgX&.hX",
"hXc.gXgXgXgXgX7Xe Q |.gXgXgX+X` w & z z.0XgXwXz.x & 5 ] &XgXgXI $ w ; N V.8XgXgXgXgXgX2Xl.c & r @ 6.gXgX|.T < ; M I.gXgX5Xe.i % r  .&XgXgXgX).b 1XgXgXgXgXgXn.hX",
"hXY.gXgXgXgXgX+X] J ; < I Q.gXgXgX&X5.r & i e.5XgXgXI.N ; 3 ! ! a gX@X` 5 & x z.@Xt.a & r  .;XgXw 5.I > > K Q.gXgX:X5.r & p 8.:XgXgXpXI.J > 3 s @XgXgXgXgXgXQ.hX",
"= XXgXgXgXgXgXD.&XgX0XI.K > : J I.pXgXgX<Xw.p & r  .:XgXgX(.K < @ P ).gXgX-X .r % i 8.2XgXgXP.G @ 4 T |.gXgX&X] 5 & z l.7XgXgX0XN.M ; 3 I Q.gX*XD.gXgXgXgXgXXX2 ",
"7 &XgXgXgXgXgXb.;XgXgXgXgXuX(.T 3 ; m N.0XgXgX5Xl.x & w ` @XgXgXs 4 e ; M I.gXgXgXgXwXz.x & y 1 P gXgX|.T 3 ; M N.0XgXgX5Xa.z & w ` }.gXgXgXgX;Xn.gXgXgXgXgX*X0 ",
"j <XgXgXgXgXgXk.2XgXgXgXgXgXgXgXgX|.` w & s a.5XgXgXwXV.M ; < ! c I gX&X[ w & b  .a % r 5.<XgXc K I : > J U.gXgXgX:X8.i & r  .@XgXgXgXgXgXgXgX2Xf.gXgXgXgXgX<XV ",
"G 2XgXgXgXgXgXs.9XgXgXgXgXgXgXgXgXgXgXgX@X .r & i 8.1XgXgXgXU.K < $ P E.gXgX<X5.x e.5XgXgXP.H @ 4 I (.gXgXgX*X .r & i 8.*XgXgXgXgXgXgXgXgXgXgX9Xf.gXgXgXgXgX2XN ",
"c 5XgXgXgXgXgXf.0XgXgXgXgXgXgXgXgXgXgXgXgXgXgX*X8.4 O i  .&XgXgXgX1 s w ; M P.gXgXwXz.x & r y y gXgXgX X` y O y a.<XgXgXgXgXgXgXgXgXgXgXgXgXgX0Xa.gXgXgXgXgX5Xm ",
"c 5XgXgXgXgXgXf.0XgXgXgXgXgXgXgXgXgXgXgXgXgXgXgXgX8X$ K M & 5 ! @Xm t.gX X` w ; r ; r  .&XgXQ T }.I 3 ; K b < gXgXgXgXgXgXgXgXgXgXgXgXgXgXgXgX0Xa.gXgXgXgXgX5Xm ",
"G 2XgXgXgXgXgXs.9XgXgXgXgXgXgXgXgXgXgXgXgXgXgXgXgXgX8.y gX5XN.M > @ e _.gXgXgX@Xl.:XgXgXgXY.1 # < J I.0XgX: I.gXgXgXgXgXgXgXgXgXgXgXgXgXgXgXgX9Xf.gXgXgXgXgX2XN ",
"g :XgXgXtX5XgXg.2XgXgXgXgXgXgXgXgXgXgXgXgXgXgXgXgXgXgX< 8.gXgXgX0XA.@ - < J I.gXgXwXN.M > * * Q.tXgXgXgXT a gXgXgXgXgXgXgXgXgXgXgXgXgXgXgXgXgX2Xg.gX-X1XgXgX<XV ",
"7 *X<X(.k.^ wXB.;XgXgXgXgXgXgXgXgXgXgXgXgXgXgXgXgXgXgX).+ 5XgXgXgXgXr V.'.I < : i ; 5 !  X6.x gXgXgXgX&X+ &XgXgXgXgXgXgXgXgXgXgXgXgXgXgXgXgXgX;Xb.gXQ.f.3.9X;X0 ",
"= .X5X) B..X0XJ. XgXgXgXgXgXgXgXgXgXgXgXgXgXgXgXgXgXgXgXc K gXgXgXgXI P gXgXgX'.8.+XgXgXgXs 7.gXgXgXgXi Q gXgXgXgXgXgXgXgXgXgXgXgXgXgXgXgXgXgX+XG.gX{.+X{ :X@X6 ",
"hXY.gXC.{ _ gX[.K.gXgXgXgXgXgXgXgXgXgXgXgXgXgXgXgXgXgXgX<X+  XgXgXgXU.3 gXgXgXgXgXgXgXgX9X; @XgXgXgXA.# 0XgXgXgXgXgXgXgXgXgXgXgXgXgXgXgXgXgXgXY.|.5Xk.K.E.gXQ.hX",
"hXc.gXC.Q.C.gX:Xk.gXgXgXgXgXgXgXgXgXgXgXgXgXgXgXgXgXgXgXgX[ e gXgXgX9X- &XgXS.e.z.w.G.gXU.3 gXgXgXuX- z.gXgXgXgXgXgXgXgXgXgXgXgXgXgXgXgXgXgXgXn.<X<XE &.Q.gXn.hX",
"hX&.gX(.,.[.gXuX4.gXgXgXgXgXgXgXgXgXgXgXgXgXgXgXgXgXgXgXgXtX* z.gXgXgXa 8.gX] > X >  .gXI K gXgXgX[ e gXgXgXgXgXgXgXgXgXgXgXgXgXgXgXgXgXgXgXgX4.gX{.H.4.+XgX&.hX",
"hXS pXQ.@.D.pXgXs.<XgXgXgXgXgXgXgXgXgXgXgXgXgXgXgXgXgXgXgXgXA.# wXgXgX6.s gXgX*X# 1XgXgXw V.gXgX<X+  XgXgXgXgXgXgXgXgXgXgXgXgXgXgXgXgXgXgXgX1Xf.uXQ.@Xy.*XtXS hX",
"hXhX&XpXb.X.<XgXQ.Y.gXgXgXgXgXgXgXgXgXgXgXgXgXgXgXgXgXgXgXgXgXi Q gXgX+X; 0XgX*X* <XgX;X& 5XgXgXb J gXgXgXgXgXgXgXgXgXgXgXgXgXgXgXgXgXgXgXgXE.(.0XX.+X_ -X:XhXhX",
"hXhXG.gX@.C.A R.9Xy.gXgXgXgXgXgXgXgXgXgXgXgXgXgXgXgXgXgXgXgXgX&X+ &XgXgX< ).gX-X* 2XgXa.y gXgX(.+ 5XgXgXgXgXgXgXgXgXgXgXgXgXgXgXgXgXgXgXgXgXy.5XgX(.&.C.gXH.hXhX",
"hXhXX.gXQ.&.g.8XgXy.1XgXgXgXgXgXgXgXgXgXgXgXgXgXgXgXgXgXgXgXgXgXI a gXgXJ Q gX5XN 9XgXm [ gXgX< 8.gXgXgXgXgXgXgXgXgXgXgXgXgXgXgXgXgXgXgXgX2Xy.gXgXgXgXgXgX@.hXhX",
"hXhXk 2XgX=.F {.gX[.B.gXgXgXgXgXgXgXgXgXgXgXgXgXgXgXgXgXgXgXgXgX9X# I.gXz.e gXgXgXgXtX: }.gX8.< gXgXgXgXgXgXgXgXgXgXgXgXgXgXgXgXgXgXgXgXgXZ.].gX-X1X`.(.9XB hXhX",
"hXhXhXJ.pXZ.b.E.gXgX-.tXgXgXgXgXgXgXgXgXgXgXgXgXgXgXgXgXgXgXgXgXgXa.; gX5X* <XgXgXgX}.: uX7X+ E.gXgXgXgXgXgXgXgXgXgXgXgXgXgXgXgXgXgXgXgXuX-.uXgX{.E (.<XK.hXhXhX",
"hXhXhX) gX2Xf.X.&XgXE.H.gXgXgXgXgXgXgXgXgXgXgXgXgXgXgXgXgXgXgXgXgXgXw  .gXr l.gXgXgX[ m gXK c gXgXgXgXgXgXgXgXgXgXgXgXgXgXgXgXgXgXgXgXgXJ.K.gX-Xi.F.{ 2X..hXhXhX",
"hXhXhXhX@XwX(.,.J.8XuX@.wXgXgXgXgXgXgXgXgXgXgXgXgXgXgXgXgXgXgXgXgXgX].+ 0X .N gXgXgXy N.*X+ :XgXgXgXgXgXgXgXgXgXgXgXgXgXgXgXgXgXgXgXgXwX@.uXgX9.s.+X[.`.hXhXhXhX",
"hXhXhXhX=.gX.XD.A Z.gX].c.gXgXgXgXgXgXgXgXgXgXgXgXgXgXgXgXgXgXgXgXgXgXG K &X< uXgX5X- 5Xi [ gXgXgXgXgXgXgXgXgXgXgXgXgXgXgXgXgXgXgXgXgXb.'.gXpXc./ F _.k.hXhXhXhX",
"hXhXhXhX9 *XgX;..Xb.gXgX2.*XgXgXgXgXgXgXgXgXgXgXgXgXgXgXgXgXgXgXgXgXgX2X# E.e |.gXN.a V.& tXgXgXgXgXgXgXgXgXgXgXgXgXgXgXgXgXgXgXgXgX*X,.gXgXg.,.Q.c.[.f hXhXhXhX",
"hXhXhXhXhX=.gX&Xy.{ @X@X2XX.uXgXgXgXgXgXgXgXgXgXgXgXgXgXgXgXgXgXgXgXgXgX6.i N  .gXP I 4 V.gXgXgXgXgXgXgXgXgXgXgXgXgXgXgXgXgXgXgXgXpXX.2X].@Xi.a.H.gX0.hXhXhXhXhX",
"hXhXhXhXhXhX@XuX2.5X.X.XgX_.s.gXgXgXgXgXgXgXgXgXgXgXgXgXgXgXgXgXgXgXgXgXgXr 4 m gXi 3 c gXgXgXgXgXgXgXgXgXgXgXgXgXgXgXgXgXgXgXgXgXf.(.gX-X,.2.b.gX@XhXhXhXhXhXhX",
"hXhXhXhXhXhXE gXgXgXgXgX2XgXk.K.gXgXgXgXgXgXgXgXgXgXgXgXgXgXgXgXgXgXgXgXgXQ.X 3 [.$ O &XgXgXgXgXgXgXgXgXgXgXgXgXgXgXgXgXgXgXgXgXE.f.gXtXZ.4.k.<XgX~ hXhXhXhXhXhX",
"hXhXhXhXhXhXhXM.gXuXC.&.F 8XgX-.|.gXgXgXgXgXgXgXgXgXgXgXgXgXgXgXgXgXgXgXgXgXJ O m X [ gXgXgXgXgXgXgXgXgXgXgXgXgXgXgXgXgXgXgXgX X-.gXgX7X;.y.(.gXC.hXhXhXhXhXhXhX",
"hXhXhXhXhXhXhX0 &XuX_.E S.0XgXtXX.+XgXgXgXgXgXgXgXgXgXgXgXgXgXgXgXgXgXgXgXgX:X# X 1 9XgXgXgXgXgXgXgXgXgXgXgXgXgXgXgXgXgXgXgX+XX.tXgX+X{ 2.c.uX*X0 hXhXhXhXhXhXhX",
"hXhXhXhXhXhXhXhXF wXgXb.{.^ 0XgXwXX.[.gXgXgXgXgXgXgXgXgXgXgXgXgXgXgXgXgXgXgXgX5.  n.gXgXgXgXgXgXgXgXgXgXgXgXgXgXgXgXgXgXgX XX.0XgXwX,.b.Z.gXtXE hXhXhXhXhXhXhXhX",
"hXhXhXhXhXhXhXhXhX@.gX5X/ H.c.&XgXtX-.H.gXgXgXgXgXgXgXgXgXgXgXgXgXgXgXgXgXgXgX8XY gXgXgXgXgXgXgXgXgXgXgXgXgXgXgXgXgXgXgXJ.-.tX5X2.X.a.f.wXgX;.hXhXhXhXhXhXhXhXhX",
"hXhXhXhXhXhXhXhXhXhXk.gX&XF._ `.<XgXgXf.i.uXgXgXgXgXgXgXgXgXgXgXgXgXgXgXgXgXgXgXgXgXgXgXgXgXgXgXgXgXgXgXgXgXgXgXgXgXgXs.f.gXgX*X-.r.H.1XgXc.hXhXhXhXhXhXhXhXhXhX",
"hXhXhXhXhXhXhXhXhXhXhXD.gX(.y.y.,.<XgXgX_.X.&XgXgXgXgXgXgXgXgXgXgXgXgXgXgXgXgXgXgXgXgXpXgXgXgXgXgXgXgXgXgXgXgXgXgX&XX.(.gXgXpX{ pXb.:XgXG.hXhXhXhXhXhXhXhXhXhXhX",
"hXhXhXhXhXhXhXhXhXhXhXhXJ.gX1X,.r.k.D.tX9X<X,.g.9XgXgXgXgXgXgXgXgXgXgX5X-.<X2.(.Y.k.].-.&XgXgXgXgXgXgXgXgXgXgX0Xk.-.2XuX+X`.-.4.{ *XgXY.hXhXhXhXhXhXhXhXhXhXhXhX",
"hXhXhXhXhXhXhXhXhXhXhXhXhXD.gX*XH.@.+XB.@XgXgX_.X.S.wXgXgXgXgXgXgXgXgXgXy.+Xy.=.y.{ H.F ].gXgXgXgXgXgXgXgXwXD.X.Q.gX0XF M.k.F `.0XgXF.hXhXhXhXhXhXhXhXhXhXhXhXhX",
"hXhXhXhXhXhXhXhXhXhXhXhXhXhXk.gXwXk.].i.+X(.gXgXgXH.@.M.<XgXgXgXgXgXgX8XF *XB.;.k.=.,.{ S.gXgXgXgXgXgX<XM.@.H.uXgXZ.0X8XX.[.M.:XgXk.hXhXhXhXhXhXhXhXhXhXhXhXhXhX",
"hXhXhXhXhXhXhXhXhXhXhXhXhXhXhX@.wXgX`.c.) { / (.+XgXgX'.0.0.K.:XgXgXgXwX`.<X.X0X<X@XwX{.gXgXgXgX<XY.0.0._.gXgXgX5XZ H.gX-X(.gXuX@.hXhXhXhXhXhXhXhXhXhXhXhXhXhXhX",
"hXhXhXhXhXhXhXhXhXhXhXhXhXhXhXhXF @XgX*X{ g.f.F.(.&XgXgXgX2XQ.k.3.g.J.+X2X7XuXtXuXuX5X2X.XJ.g.3.a.E.2XgXgXgX<Xg.f.M._ 7XgXgX&XF hXhXhXhXhXhXhXhXhXhXhXhXhXhXhXhX",
"hXhXhXhXhXhXhXhXhXhXhXhXhXhXhXhXhX9 b.gXgX{.Z.r.0.;.E.@X9XgXgX5XuX-X].D.b.g.s.s.s.f.g.b.D.].-XuXgXgXgXgX_.Q.;.y.-.r.K.gXuXB.0 hXhXhXhXhXhXhXhXhXhXhXhXhXhXhXhXhX",
"hXhXhXhXhXhXhXhXhXhXhXhXhXhXhXhXhXhXhXE {.gXtX:Xi.i.X.{ ,.gX{ c.gXgXgXgXgXgXgXgXgXuXgXgXgXgXgXgX7X+XQ.tXF.Z a.K.@XgXgX+XE hXhXhXhXhXhXhXhXhXhXhXhXhXhXhXhXhXhXhX",
"hXhXhXhXhXhXhXhXhXhXhXhXhXhXhXhXhXhXhXhXhX=.*XgX0X&XK.K.f.gX/ n.X.+XR.1X|.{ *X9X:X`.wX-X5Xc.+Xf.(.E X.wXF._ @XgXgX&X=.hXhXhXhXhXhXhXhXhXhXhXhXhXhXhXhXhXhXhXhXhX",
"hXhXhXhXhXhXhXhXhXhXhXhXhXhXhXhXhXhXhXhXhXhX9 =.@XgXgX8X5X2XB.y.n.) X.9X@X@.].=.[.C.9._ @.,.@.X.@X-.s.9XgXgXgX@X=.9 hXhXhXhXhXhXhXhXhXhXhXhXhXhXhXhXhXhXhXhXhXhX",
"hXhXhXhXhXhXhXhXhXhXhXhXhXhXhXhXhXhXhXhXhXhXhXhXhX) H.2XgXgXgX&Xn.`.[.gX@X=.^ ,.<X4.X.4.R.Q.(.@XH.gXgXgX<XJ.) hXhXhXhXhXhXhXhXhXhXhXhXhXhXhXhXhXhXhXhXhXhXhXhXhX",
"hXhXhXhXhXhXhXhXhXhXhXhXhXhXhXhXhXhXhXhXhXhXhXhXhXhXhXk ..D.&XuXgXgXgXgX8X].gX+X@X7XuX*XgXgXgXgXgX&XG...f hXhXhXhXhXhXhXhXhXhXhXhXhXhXhXhXhXhXhXhXhXhXhXhXhXhXhX",
"hXhXhXhXhXhXhXhXhXhXhXhXhXhXhXhXhXhXhXhXhXhXhXhXhXhXhXhXhXhXhXS &.c.Y.XX*X5X5XwX0X5X<X:XXXY.c.&.S hXhXhXhXhXhXhXhXhXhXhXhXhXhXhXhXhXhXhXhXhXhXhXhXhXhXhXhXhXhXhX",
"hXhXhXhXhXhXhXhXhXhXhXhXhXhXhXhXhXhXhXhXhXhXhXhXhXhXhXhXhXhXhXhXhXhXhX= 7 h N b b N h 7 = hXhXhXhXhXhXhXhXhXhXhXhXhXhXhXhXhXhXhXhXhXhXhXhXhXhXhXhXhXhXhXhXhXhXhX"
};
